<svg width="121" height="34" viewBox="0 0 121 34" fill="none" xmlns="http://www.w3.org/2000/svg">
<path fill-rule="evenodd" clip-rule="evenodd" d="M56.6094 13.2957H51.6684V16.4629H50.8382C49.1641 14.8882 46.9447 13.9292 44.5099 13.9292C39.2971 13.9292 35.0713 18.3252 35.0713 23.7479C35.0713 29.1706 39.2971 33.5666 44.5099 33.5666C46.9449 33.5666 49.1645 32.6074 50.8386 31.0325H51.6684V33.0597H56.6094V13.2957ZM51.2879 23.7482C51.2879 26.8417 48.8772 29.3495 45.9035 29.3495C42.9297 29.3495 40.519 26.8417 40.519 23.7482C40.519 20.6547 42.9297 18.147 45.9035 18.147C48.8772 18.147 51.2879 20.6547 51.2879 23.7482Z" fill="#303A42"/>
<path fill-rule="evenodd" clip-rule="evenodd" d="M94.6169 13.2957H89.6759V16.4629H88.8463C87.1721 14.8881 84.9526 13.929 82.5177 13.929C77.3049 13.929 73.0791 18.3249 73.0791 23.7477C73.0791 29.1704 77.3049 33.5664 82.5177 33.5664C84.9525 33.5664 87.172 32.6073 88.8462 31.0325H89.6759V33.0597H94.6169V13.2957ZM89.2957 23.748C89.2957 26.8415 86.885 29.3492 83.9113 29.3492C80.9375 29.3492 78.5268 26.8415 78.5268 23.748C78.5268 20.6545 80.9375 18.1467 83.9113 18.1467C86.885 18.1467 89.2957 20.6545 89.2957 23.748Z" fill="#303A42"/>
<path fill-rule="evenodd" clip-rule="evenodd" d="M120.716 13.2957H115.775V16.4629H114.945C113.271 14.8881 111.051 13.929 108.616 13.929C103.404 13.929 99.1777 18.3249 99.1777 23.7477C99.1777 29.1704 103.404 33.5664 108.616 33.5664C111.051 33.5664 113.271 32.6073 114.945 31.0325H115.775V33.0597H120.716V13.2957ZM115.395 23.748C115.395 26.8415 112.984 29.3492 110.01 29.3492C107.036 29.3492 104.626 26.8415 104.626 23.748C104.626 20.6545 107.036 18.1467 110.01 18.1467C112.984 18.1467 115.395 20.6545 115.395 23.748Z" fill="#303A42"/>
<rect x="63.0703" y="0.626221" width="5.70117" height="32.56" fill="#303A42"/>
<rect x="24.0488" y="0.626221" width="5.70117" height="32.56" rx="2.85059" fill="#303A42"/>
<rect opacity="0.3" x="12.2666" y="0.626221" width="5.70117" height="32.56" rx="2.85059" fill="#303A42"/>
<rect x="12.2666" y="0.626221" width="5.70117" height="20.2708" rx="2.85059" fill="#303A42"/>
<rect x="0.484375" y="0.626221" width="5.70117" height="32.56" rx="2.85059" fill="#303A42"/>
</svg>
